<svg id="Layer_1" data-name="Layer 1" xmlns="http://www.w3.org/2000/svg" viewBox="0 0 40 40"><title>idea</title><rect x="-4.75" y="-4.75" width="49.5" height="49.5" fill="none"/><path d="M20,3.946h0A16.054,16.054,0,0,1,36.054,20h0A16.054,16.054,0,0,1,20,36.054h0A16.054,16.054,0,0,1,3.946,20h0A16.054,16.054,0,0,1,20,3.946Z" fill="#d8e022" stroke="#bb479a" stroke-linejoin="round" stroke-width="4"/><path d="M20,3.946h0A16.054,16.054,0,0,1,36.054,20h0A16.054,16.054,0,0,1,20,36.054h0A16.054,16.054,0,0,1,3.946,20h0A16.054,16.054,0,0,1,20,3.946Z" fill="#231f20"/><path d="M20.25,6a0.693,0.693,0,0,0-.628.628V8.512a0.628,0.628,0,1,0,1.256,0V6.628A0.656,0.656,0,0,0,20.25,6Zm8.477,3.748a0.7,0.7,0,0,0-.441.2L27.029,11.2a0.628,0.628,0,1,0,.883.893l1.256-1.256A0.628,0.628,0,0,0,28.727,9.748ZM11.7,9.758a0.628,0.628,0,0,0-.373,1.079l1.256,1.256a0.628,0.628,0,1,0,.883-0.893L12.215,9.944A0.638,0.638,0,0,0,11.7,9.758Zm8.545,1.894a6.951,6.951,0,0,0-6.907,6.907c0,4.936,3.331,5.665,3.728,8.791h6.358c0.4-3.125,3.728-3.855,3.728-8.791A6.951,6.951,0,0,0,20.25,11.651Zm9.1,7.221a0.676,0.676,0,0,0,.628.628h2.2a0.628,0.628,0,0,0,0-1.256h-2.2A0.652,0.652,0,0,0,29.355,18.872Zm-21.663,0a0.677,0.677,0,0,0,.628.628H10.2a0.628,0.628,0,1,0,0-1.256H8.32A0.652,0.652,0,0,0,7.692,18.872Zm5.73,6.1a0.635,0.635,0,0,0-.432.2L11.371,26.78a0.628,0.628,0,1,0,.883.893l1.619-1.619A0.628,0.628,0,0,0,13.422,24.975Zm13.578,0a0.628,0.628,0,0,0-.373,1.079l1.619,1.619a0.628,0.628,0,1,0,.883-0.893L27.51,25.171a0.636,0.636,0,0,0-.451-0.2H27ZM17.11,28.6v3.14A1.258,1.258,0,0,0,18.366,33h3.767a1.258,1.258,0,0,0,1.256-1.256V28.6H17.11Z" fill="#fff"/></svg>